<svg width="1000" height="900" xmlns="http://www.w3.org/2000/svg">
  <!-- 定义样式 -->
  <defs>
    <marker id="arrowhead" markerWidth="10" markerHeight="7" refX="9" refY="3.5" orient="auto">
      <polygon points="0 0, 10 3.5, 0 7" fill="#333" />
    </marker>
    <style>
      .module { fill: #e6f7ff; stroke: #1890ff; stroke-width: 2; rx: 10; ry: 10; }
      .auth-module { fill: #fff7e6; stroke: #fa8c16; stroke-width: 2; rx: 10; ry: 10; }
      .model-module { fill: #f6ffed; stroke: #52c41a; stroke-width: 2; rx: 10; ry: 10; }
      .ui-module { fill: #fff0f6; stroke: #eb2f96; stroke-width: 2; rx: 10; ry: 10; }
      .db-module { fill: #f9f0ff; stroke: #722ed1; stroke-width: 2; rx: 10; ry: 10; }
      .search-module { fill: #fffbe6; stroke: #faad14; stroke-width: 2; rx: 10; ry: 10; }
      .flow-line { stroke: #333; stroke-width: 2; marker-end: url(#arrowhead); fill: none; }
      .text { font-family: Arial; font-size: 14px; fill: #333; text-anchor: middle; }
      .title { font-family: Arial; font-size: 24px; font-weight: bold; fill: #333; text-anchor: middle; }
      .subtitle { font-family: Arial; font-size: 18px; fill: #666; text-anchor: middle; }
    </style>
  </defs>
  
  <!-- 标题 -->
  <text x="500" y="40" class="title">RAG实战项目架构图（优化版）</text>
  <text x="500" y="70" class="subtitle">基于Langchain的文档检索与网络搜索增强问答系统</text>
  
  <!-- 用户界面层 -->
  <rect x="50" y="100" width="900" height="100" class="ui-module" />
  <text x="500" y="130" class="text" style="font-weight: bold;">用户界面层</text>
  <rect x="100" y="150" width="180" height="30" class="ui-module" />
  <text x="190" y="170" class="text">登录页面 (login_app.py)</text>
  <rect x="320" y="150" width="180" height="30" class="ui-module" />
  <text x="410" y="170" class="text">主应用页面 (web_app.py)</text>
  <rect x="540" y="150" width="180" height="30" class="ui-module" />
  <text x="630" y="170" class="text">管理员页面 (admin_dashboard.py)</text>
  <rect x="760" y="150" width="140" height="30" class="ui-module" />
  <text x="830" y="170" class="text">用户资料 (user_profile_page.py)</text>
  
  <!-- 认证与用户管理层 -->
  <rect x="50" y="230" width="280" height="150" class="auth-module" />
  <text x="190" y="260" class="text" style="font-weight: bold;">认证与用户管理层</text>
  <rect x="80" y="280" width="220" height="30" class="auth-module" />
  <text x="190" y="300" class="text">认证模块 (auth.py)</text>
  <rect x="80" y="320" width="220" height="30" class="auth-module" />
  <text x="190" y="340" class="text">用户管理 (user_manager_enhanced.py)</text>
  
  <!-- 文档处理层 -->
  <rect x="360" y="230" width="280" height="150" class="module" />
  <text x="500" y="260" class="text" style="font-weight: bold;">文档处理层</text>
  <rect x="390" y="280" width="220" height="30" class="module" />
  <text x="500" y="300" class="text">文件管理 (file_manager.py)</text>
  <rect x="390" y="320" width="220" height="30" class="module" />
  <text x="500" y="340" class="text">文档处理 (document_processor.py)</text>
  
  <!-- 检索增强层 -->
  <rect x="670" y="230" width="280" height="150" class="search-module" />
  <text x="810" y="260" class="text" style="font-weight: bold;">检索增强层</text>
  <rect x="700" y="280" width="220" height="30" class="search-module" />
  <text x="810" y="300" class="text">增强检索 (enhanced_retrieval.py)</text>
  <rect x="700" y="320" width="220" height="30" class="search-module" />
  <text x="810" y="340" class="text">网络搜索 (search_engine.py)</text>
  
  <!-- 模型与向量存储层 -->
  <rect x="50" y="410" width="900" height="150" class="model-module" />
  <text x="500" y="440" class="text" style="font-weight: bold;">模型与向量存储层</text>
  <rect x="100" y="470" width="220" height="30" class="model-module" />
  <text x="210" y="490" class="text">模型接口 (model_interface.py)</text>
  <rect x="390" y="470" width="220" height="30" class="model-module" />
  <text x="500" y="490" class="text">向量存储 (vector_store.py)</text>
  <rect x="680" y="470" width="220" height="30" class="model-module" />
  <text x="790" y="490" class="text">增强向量存储 (vector_store_enhanced.py)</text>
  <rect x="390" y="510" width="220" height="30" class="model-module" />
  <text x="500" y="530" class="text">聊天管理 (chat_manager.py)</text>
  
  <!-- 数据库层 -->
  <rect x="50" y="590" width="900" height="100" class="db-module" />
  <text x="500" y="620" class="text" style="font-weight: bold;">数据库层</text>
  <rect x="150" y="640" width="220" height="30" class="db-module" />
  <text x="260" y="660" class="text">MySQL (用户数据)</text>
  <rect x="390" y="640" width="220" height="30" class="db-module" />
  <text x="500" y="660" class="text">数据库连接池 (db_pool.py)</text>
  <rect x="630" y="640" width="220" height="30" class="db-module" />
  <text x="740" y="660" class="text">Qdrant (向量存储)</text>
  
  <!-- 外部服务层 -->
  <rect x="50" y="720" width="900" height="100" class="module" />
  <text x="500" y="750" class="text" style="font-weight: bold;">外部服务层</text>
  <rect x="100" y="770" width="160" height="30" class="module" />
  <text x="180" y="790" class="text">DeepSeek API</text>
  <rect x="280" y="770" width="160" height="30" class="module" />
  <text x="360" y="790" class="text">阿里通义千问 API</text>
  <rect x="460" y="770" width="160" height="30" class="module" />
  <text x="540" y="790" class="text">百度文心 API</text>
  <rect x="640" y="770" width="160" height="30" class="module" />
  <text x="720" y="790" class="text">邮件服务</text>
  <rect x="820" y="770" width="100" height="30" class="module" />
  <text x="870" y="790" class="text">搜索API</text>
  
  <!-- 数据流向 -->
  <!-- 用户界面到认证层 -->
  <path d="M190,200 L190,230" class="flow-line" />
  <!-- 用户界面到文档处理层 -->
  <path d="M410,200 L410,230" class="flow-line" />
  <!-- 用户界面到检索增强层 -->
  <path d="M630,200 L630,230" class="flow-line" />
  <!-- 认证层到数据库 -->
  <path d="M190,380 L190,590" class="flow-line" />
  <!-- 文档处理到模型层 -->
  <path d="M500,380 L500,410" class="flow-line" />
  <!-- 检索增强层到模型层 -->
  <path d="M810,380 L810,410" class="flow-line" />
  <!-- 模型层到外部服务 -->
  <path d="M500,560 L500,720" class="flow-line" />
  <!-- 检索增强层到外部服务 -->
  <path d="M810,380 L870,380 L870,720" class="flow-line" />
  <!-- 文档处理到向量存储 -->
  <path d="M500,380 L500,470" class="flow-line" />
  <!-- 向量存储到数据库 -->
  <path d="M500,540 L500,590" class="flow-line" />
  
  <!-- 数据流程说明 -->
  <rect x="50" y="850" width="900" height="120" fill="white" stroke="#d9d9d9" stroke-width="1" rx="5" ry="5" />
  <text x="500" y="870" class="text" style="font-weight: bold;">系统数据流程</text>
  <text x="500" y="895" class="text">1. 用户通过登录页面进行身份验证，支持邮箱验证</text>
  <text x="500" y="915" class="text">2. 用户上传多种格式文档，系统进行文档处理、分块和向量化</text>
  <text x="500" y="935" class="text">3. 用户提问时，系统结合本地知识库检索和网络搜索获取相关信息</text>
  <text x="500" y="955" class="text">4. 大模型基于检索到的信息生成回答，并提供信息来源</text>
</svg>